HIERARCHY
ROOT Hips
{
	OFFSET 0.000000 103.266502 0.000000
	CHANNELS 6 Xposition Yposition Zposition Xrotation Yrotation Zrotation 
	JOINT Spine
	{
		OFFSET -0.002400 12.777504 0.315300
		CHANNELS 3 Xrotation Yrotation Zrotation
		JOINT Spine1
		{
			OFFSET -0.002067 5.816869 0.032633
			CHANNELS 3 Xrotation Yrotation Zrotation
			JOINT Spine1_split
			{
				OFFSET -0.002067 5.816869 0.032633
				CHANNELS 3 Xrotation Yrotation Zrotation
				JOINT Spine2
				{
					OFFSET -0.002067 5.816869 0.032633
					CHANNELS 3 Xrotation Yrotation Zrotation
					JOINT Neck
					{
						OFFSET -0.003700 21.199493 -0.826900
						CHANNELS 3 Xrotation Yrotation Zrotation
						JOINT Head
						{
							OFFSET 0.000000 20.442200 4.834800
							CHANNELS 3 Xrotation Yrotation Zrotation
							JOINT HeadTop_End
							{
								OFFSET 0.000000 34.668396 4.968400
								CHANNELS 3 Xrotation Yrotation Zrotation
								End Site
								{
									OFFSET 0.000000 0.000000 0.000000
								}
							}
						}
					}
					JOINT LeftShoulder
					{
						OFFSET 3.288150 8.794197 -1.372250
						CHANNELS 3 Xrotation Yrotation Zrotation
						JOINT LeftShoulder_split
						{
							OFFSET 3.288150 8.794197 -1.372250
							CHANNELS 3 Xrotation Yrotation Zrotation
							JOINT LeftArm
							{
								OFFSET 11.953299 -2.279007 -0.146200
								CHANNELS 3 Xrotation Yrotation Zrotation
								JOINT LeftForeArm
								{
									OFFSET 18.448900 0.000000 0.000000
									CHANNELS 3 Xrotation Yrotation Zrotation
									JOINT LeftHand
									{
										OFFSET 29.527798 0.000000 0.000000
										CHANNELS 3 Xrotation Yrotation Zrotation
										JOINT LeftHandThumb1
										{
											OFFSET 10.739754 -2.369614 9.225399
											CHANNELS 3 Xrotation Yrotation Zrotation
											JOINT LeftHandThumb2
											{
												OFFSET 4.926170 -2.844131 2.844125
												CHANNELS 3 Xrotation Yrotation Zrotation
												JOINT LeftHandThumb3
												{
													OFFSET 4.614891 -2.664413 2.664409
													CHANNELS 3 Xrotation Yrotation Zrotation
													JOINT LeftHandThumb4
													{
														OFFSET 4.432465 -2.559082 2.559083
														CHANNELS 3 Xrotation Yrotation Zrotation
														End Site
														{
															OFFSET 0.000000 0.000000 0.000000
														}
													}
												}
											}
										}
										JOINT LeftHandIndex1
										{
											OFFSET 26.467674 0.187653 6.405298
											CHANNELS 3 Xrotation Yrotation Zrotation
											JOINT LeftHandIndex2
											{
												OFFSET 8.792900 0.000000 0.000000
												CHANNELS 3 Xrotation Yrotation Zrotation
												JOINT LeftHandIndex3
												{
													OFFSET 10.075203 0.000000 0.000000
													CHANNELS 3 Xrotation Yrotation Zrotation
													End Site
													{
														OFFSET 0.000000 0.000000 0.000000
													}
												}
											}
										}
										JOINT LeftHandMiddle1
										{
											OFFSET 25.764404 0.000000 0.000000
											CHANNELS 3 Xrotation Yrotation Zrotation
											JOINT LeftHandMiddle2
											{
												OFFSET 9.393974 0.000000 0.000000
												CHANNELS 3 Xrotation Yrotation Zrotation
												JOINT LeftHandMiddle3
												{
													OFFSET 10.771950 0.000000 0.000000
													CHANNELS 3 Xrotation Yrotation Zrotation
													End Site
													{
														OFFSET 0.000000 0.000000 0.000000
													}
												}
											}
										}
										JOINT LeftHandRing1
										{
											OFFSET 24.660927 0.144547 -6.225808
											CHANNELS 3 Xrotation Yrotation Zrotation
											JOINT LeftHandRing2
											{
												OFFSET 9.393799 0.000000 0.000000
												CHANNELS 3 Xrotation Yrotation Zrotation
												JOINT LeftHandRing3
												{
													OFFSET 9.928497 0.000000 0.000000
													CHANNELS 3 Xrotation Yrotation Zrotation
													End Site
													{
														OFFSET 0.000000 0.000000 0.000000
													}
												}
											}
										}
										JOINT LeftHandPinky1
										{
											OFFSET 23.655350 0.125290 -12.815412
											CHANNELS 3 Xrotation Yrotation Zrotation
											JOINT LeftHandPinky2
											{
												OFFSET 8.425102 0.000000 0.000000
												CHANNELS 3 Xrotation Yrotation Zrotation
												JOINT LeftHandPinky3
												{
													OFFSET 8.147003 0.000000 0.000000
													CHANNELS 3 Xrotation Yrotation Zrotation
													End Site
													{
														OFFSET 0.000000 0.000000 0.000000
													}
												}
											}
										}
									}
								}
							}
						}
					}
					JOINT RightShoulder
					{
						OFFSET -3.249400 8.794197 -1.372250
						CHANNELS 3 Xrotation Yrotation Zrotation
						JOINT RightShoulder_split
						{
							OFFSET -3.249400 8.794197 -1.372250
							CHANNELS 3 Xrotation Yrotation Zrotation
							JOINT RightArm
							{
								OFFSET -11.953299 -2.279007 -0.146200
								CHANNELS 3 Xrotation Yrotation Zrotation
								JOINT RightForeArm
								{
									OFFSET -18.448900 0.000000 0.000000
									CHANNELS 3 Xrotation Yrotation Zrotation
									JOINT RightHand
									{
										OFFSET -29.527802 0.000000 0.000000
										CHANNELS 3 Xrotation Yrotation Zrotation
										JOINT RightHandThumb1
										{
											OFFSET -10.739754 -2.369614 9.225399
											CHANNELS 3 Xrotation Yrotation Zrotation
											JOINT RightHandThumb2
											{
												OFFSET -4.926170 -2.844131 2.844125
												CHANNELS 3 Xrotation Yrotation Zrotation
												JOINT RightHandThumb3
												{
													OFFSET -4.614891 -2.664413 2.664409
													CHANNELS 3 Xrotation Yrotation Zrotation
													JOINT RightHandThumb4
													{
														OFFSET -4.432465 -2.559082 2.559083
														CHANNELS 3 Xrotation Yrotation Zrotation
														End Site
														{
															OFFSET 0.000000 0.000000 0.000000
														}
													}
												}
											}
										}
										JOINT RightHandIndex1
										{
											OFFSET -26.467674 0.187653 6.405298
											CHANNELS 3 Xrotation Yrotation Zrotation
											JOINT RightHandIndex2
											{
												OFFSET -8.792900 0.000000 0.000000
												CHANNELS 3 Xrotation Yrotation Zrotation
												JOINT RightHandIndex3
												{
													OFFSET -10.075203 0.000000 0.000000
													CHANNELS 3 Xrotation Yrotation Zrotation
													End Site
													{
														OFFSET 0.000000 0.000000 0.000000
													}
												}
											}
										}
										JOINT RightHandMiddle1
										{
											OFFSET -25.764404 0.000000 0.000000
											CHANNELS 3 Xrotation Yrotation Zrotation
											JOINT RightHandMiddle2
											{
												OFFSET -9.393974 0.000000 0.000000
												CHANNELS 3 Xrotation Yrotation Zrotation
												JOINT RightHandMiddle3
												{
													OFFSET -10.771950 0.000000 0.000000
													CHANNELS 3 Xrotation Yrotation Zrotation
													End Site
													{
														OFFSET 0.000000 0.000000 0.000000
													}
												}
											}
										}
										JOINT RightHandRing1
										{
											OFFSET -24.660927 0.144547 -6.225808
											CHANNELS 3 Xrotation Yrotation Zrotation
											JOINT RightHandRing2
											{
												OFFSET -9.393799 0.000000 0.000000
												CHANNELS 3 Xrotation Yrotation Zrotation
												JOINT RightHandRing3
												{
													OFFSET -9.928497 0.000000 0.000000
													CHANNELS 3 Xrotation Yrotation Zrotation
													End Site
													{
														OFFSET 0.000000 0.000000 0.000000
													}
												}
											}
										}
										JOINT RightHandPinky1
										{
											OFFSET -23.655350 0.125290 -12.815412
											CHANNELS 3 Xrotation Yrotation Zrotation
											JOINT RightHandPinky2
											{
												OFFSET -8.425102 0.000000 0.000000
												CHANNELS 3 Xrotation Yrotation Zrotation
												JOINT RightHandPinky3
												{
													OFFSET -8.147003 0.000000 0.000000
													CHANNELS 3 Xrotation Yrotation Zrotation
													End Site
													{
														OFFSET 0.000000 0.000000 0.000000
													}
												}
											}
										}
									}
								}
							}
						}
					}
				}
			}
		}
	}
	JOINT LeftUpLeg
	{
		OFFSET 11.394100 -6.187798 -0.413800
		CHANNELS 3 Xrotation Yrotation Zrotation
		JOINT LeftLeg
		{
			OFFSET 0.430247 -32.302673 3.732800
			CHANNELS 3 Xrotation Yrotation Zrotation
			JOINT LeftFoot
			{
				OFFSET -0.430247 -48.264931 -6.423300
				CHANNELS 3 Xrotation Yrotation Zrotation
				JOINT LeftToeBase
				{
					OFFSET 4.230900 -16.068199 23.438400
					CHANNELS 3 Xrotation Yrotation Zrotation
					JOINT LeftToe_End
					{
						OFFSET 4.510700 0.695400 19.974600
						CHANNELS 3 Xrotation Yrotation Zrotation
						End Site
						{
							OFFSET 0.000000 0.000000 0.000000
						}
					}
				}
			}
		}
	}
	JOINT RightUpLeg
	{
		OFFSET -11.333700 -6.187798 -0.413800
		CHANNELS 3 Xrotation Yrotation Zrotation
		JOINT RightLeg
		{
			OFFSET -0.430392 -32.302628 3.733000
			CHANNELS 3 Xrotation Yrotation Zrotation
			JOINT RightFoot
			{
				OFFSET 0.430392 -48.264973 -6.423500
				CHANNELS 3 Xrotation Yrotation Zrotation
				JOINT RightToeBase
				{
					OFFSET -4.230900 -16.068199 23.438400
					CHANNELS 3 Xrotation Yrotation Zrotation
					JOINT RightToe_End
					{
						OFFSET -4.510700 0.695400 19.974600
						CHANNELS 3 Xrotation Yrotation Zrotation
						End Site
						{
							OFFSET 0.000000 0.000000 0.000000
						}
					}
				}
			}
		}
	}
}
MOTION
Frames: 4
Frame Time: 0.016667
11.117794 12.775215 -14.525490 -114.917933 73.134578 33.676405 15.211721 -10.553738 -7.512577 10.269410 -4.988684 -4.175167 0.000000 0.000000 0.000000 10.075511 -5.450792 -4.055229 -3.272616 7.228371 -14.282613 -28.199344 11.664162 -14.767934 -0.000000 -0.000000 0.000000 4.010587 -4.908950 30.425935 0.000000 0.000000 0.000000 -98.272161 29.592942 -48.772281 0.000002 -29.022085 0.000000 0.131368 16.629460 8.536194 -1.540038 3.690183 6.142349 3.939051 7.948715 0.746818 -0.579466 1.574994 2.538715 0.000001 0.000003 0.000000 -0.000001 -0.000004 0.000008 -0.000001 0.000010 -0.000021 0.000001 0.000001 0.000000 -0.000001 -0.001934 0.015990 0.000001 0.001935 -0.016003 -0.000000 0.000000 0.000001 -0.000000 -0.000003 0.000008 -0.000000 0.000008 -0.000021 0.000000 -0.000001 -0.000001 -0.018089 4.054250 0.511073 -0.018089 -4.054246 -0.511085 0.000000 -0.000001 -0.000001 5.201610 10.649073 -16.868037 0.000000 0.000000 0.000000 -39.319541 45.122801 97.301256 -0.000228 102.936470 0.000223 5.604808 -5.065562 40.880769 -1.849253 -3.581791 -6.586148 4.637196 -8.634127 -0.225418 -1.273759 0.137311 -2.094859 -0.000001 0.000003 0.000001 0.000003 -0.000002 -0.000001 -0.000003 0.000004 0.000012 -0.000000 0.000000 -0.000000 -0.000001 0.000000 0.000010 -0.000002 0.000002 -0.000000 0.000000 0.000000 0.000001 0.000003 -0.000002 -0.000001 -0.000003 0.000003 0.000009 -0.000000 -0.000000 -0.000000 0.000003 -0.000002 -0.000001 -0.000004 0.000003 0.000018 0.000000 0.000000 -0.000000 -105.357676 8.907690 -1.857536 87.349623 5.479640 0.489080 15.400250 -0.722205 2.055883 -0.000021 0.000013 0.000006 -0.000001 -0.000000 0.000000 -48.774934 6.812975 6.824978 85.849836 -5.385581 -3.170744 48.096119 0.808647 13.588473 -15.637609 0.000011 -0.000050 -0.000001 0.000000 -0.000002 
11.130226 12.774101 -14.515930 -114.896104 73.056653 33.633211 15.157653 -10.535764 -7.454673 10.226777 -5.010033 -4.150916 0.000000 0.000000 0.000000 10.032182 -5.472364 -4.029281 -3.171012 7.239973 -14.352379 -28.146076 11.710055 -14.821596 -0.000000 0.000000 0.000002 4.063081 -4.848787 30.216753 0.000000 0.000000 0.000000 -98.229431 29.536163 -48.772820 0.000003 -28.953107 0.000002 0.230754 16.505016 8.705514 -1.540040 3.690188 6.142354 3.939051 7.948698 0.746810 -0.579466 1.575002 2.538712 0.000000 -0.000004 -0.000002 -0.000000 -0.000000 0.000007 0.000001 0.000008 -0.000021 -0.000000 -0.000000 0.000000 0.000001 -0.001926 0.015991 0.000001 0.001935 -0.016003 -0.000000 0.000000 0.000001 -0.000000 0.000000 0.000007 0.000001 0.000008 -0.000021 0.000000 -0.000002 -0.000000 -0.018089 4.054257 0.511073 -0.018088 -4.054249 -0.511083 -0.000000 0.000001 -0.000001 5.188620 10.588833 -17.043098 0.000000 0.000000 0.000000 -39.537814 45.274199 97.619803 -0.000161 102.793821 0.000162 6.308719 -5.800633 39.941290 -1.849253 -3.581793 -6.586136 4.637199 -8.634130 -0.225413 -1.273760 0.137311 -2.094876 0.000001 0.000001 -0.000002 0.000002 0.000001 -0.000001 0.000001 -0.000003 0.000019 -0.000000 -0.000001 0.000001 0.000003 -0.000000 -0.000007 -0.000002 -0.000001 0.000032 -0.000001 0.000001 0.000000 0.000002 0.000001 0.000001 0.000002 -0.000004 0.000017 0.000000 -0.000001 -0.000000 0.000001 0.000001 0.000001 0.000002 -0.000002 0.000017 0.000001 0.000000 0.000001 -105.209277 8.872241 -1.761289 87.513458 4.950123 0.392626 14.353523 -0.731454 1.745396 0.000011 0.000009 -0.000004 0.000000 0.000001 0.000000 -48.750503 6.792406 6.833559 85.861475 -5.394670 -3.181528 48.088111 0.832090 13.513598 -15.615921 0.000018 -0.000046 0.000002 0.000000 -0.000001 
11.144276 12.776215 -14.506294 -114.882197 72.980694 33.595850 15.105798 -10.518359 -7.396164 10.185750 -5.031179 -4.126521 0.000000 0.000000 0.000000 9.990492 -5.493618 -4.003252 -3.062562 7.250394 -14.443441 -28.110477 11.751712 -14.847708 0.000000 0.000000 -0.000002 4.107884 -4.790339 29.995049 0.000000 0.000000 0.000000 -98.160234 29.449522 -48.783530 0.000003 -28.882999 0.000002 0.431178 16.400601 8.843815 -1.540039 3.690186 6.142351 3.939052 7.948698 0.746803 -0.579468 1.575004 2.538717 0.000000 -0.000002 -0.000003 0.000001 0.000005 0.000012 -0.000001 0.000005 -0.000021 0.000000 0.000002 0.000001 -0.000000 -0.001932 0.015993 -0.000001 0.001931 -0.016002 0.000001 -0.000002 -0.000001 0.000001 0.000005 0.000012 0.000000 0.000003 -0.000021 0.000000 0.000000 -0.000000 -0.018088 4.054251 0.511076 -0.018090 -4.054255 -0.511082 -0.000000 -0.000000 -0.000002 5.169981 10.526245 -17.181305 0.000000 0.000000 0.000000 -39.744686 45.430003 97.916608 0.000255 102.663508 -0.000248 6.837461 -6.419678 39.016114 -1.849250 -3.581794 -6.586121 4.637197 -8.634134 -0.225413 -1.273763 0.137315 -2.094871 -0.000000 -0.000003 0.000003 -0.000001 -0.000001 0.000007 0.000001 -0.000003 0.000020 0.000000 0.000000 -0.000001 -0.000006 0.000004 0.000014 0.000004 -0.000010 0.000006 0.000000 0.000000 0.000001 -0.000001 0.000000 0.000009 0.000001 -0.000004 0.000018 0.000000 0.000000 0.000000 -0.000001 -0.000001 0.000009 0.000001 -0.000004 0.000021 0.000001 0.000001 0.000002 -105.060877 8.827617 -1.661519 87.672479 4.435665 0.297190 13.347925 -0.735427 1.444265 0.000004 -0.000004 0.000007 -0.000001 0.000001 -0.000000 -48.720836 6.765596 6.842862 85.871986 -5.391225 -3.191283 48.077807 0.841571 13.448386 -15.555192 0.000010 -0.000038 -0.000002 0.000001 -0.000001 
11.159382 12.781151 -14.496284 -114.877443 72.907639 33.565561 15.056191 -10.501074 -7.338645 10.146129 -5.051340 -4.102143 0.000000 0.000000 0.000000 9.950383 -5.513618 -3.977270 -2.944881 7.257594 -14.552613 -28.093669 11.789441 -14.848548 -0.000000 -0.000000 -0.000004 4.142345 -4.736905 29.766661 0.000000 0.000000 0.000000 -98.061087 29.336223 -48.805503 0.000003 -28.810161 0.000001 0.727785 16.318188 8.949747 -1.540039 3.690184 6.142354 3.939052 7.948714 0.746810 -0.579471 1.575003 2.538714 -0.000002 -0.000001 0.000000 -0.000001 -0.000000 0.000012 0.000000 0.000006 -0.000017 -0.000000 0.000002 0.000000 0.000000 -0.001932 0.015994 -0.000002 0.001931 -0.016002 0.000000 0.000003 0.000000 -0.000000 0.000000 0.000012 0.000001 0.000004 -0.000017 -0.000001 -0.000002 -0.000000 -0.018089 4.054254 0.511080 -0.018089 -4.054242 -0.511081 0.000000 -0.000000 -0.000002 5.149345 10.461791 -17.293238 0.000000 0.000000 0.000000 -39.931591 45.580502 98.183751 -0.000090 102.561677 0.000101 7.264733 -6.997018 38.122766 -1.849253 -3.581790 -6.586146 4.637187 -8.634133 -0.225410 -1.273756 0.137311 -2.094874 -0.000000 -0.000002 0.000001 -0.000001 -0.000004 0.000000 0.000001 -0.000002 0.000006 -0.000000 -0.000000 0.000002 -0.000005 0.000001 -0.000007 0.000003 -0.000005 0.000007 -0.000000 -0.000001 0.000003 -0.000001 -0.000003 0.000002 0.000002 -0.000004 0.000005 -0.000000 -0.000001 -0.000000 -0.000002 -0.000003 0.000002 0.000002 -0.000003 0.000010 0.000000 -0.000001 0.000001 -104.912853 8.775211 -1.559608 87.823768 3.941195 0.202939 12.387246 -0.734686 1.160107 -0.000003 -0.000008 0.000006 -0.000000 0.000002 0.000000 -48.687969 6.732868 6.850909 85.882976 -5.386325 -3.199815 48.065363 0.847115 13.381549 -15.522822 -0.000006 -0.000010 -0.000000 -0.000001 0.000001 
